<svg width="170" height="44" viewBox="0 0 170 44" fill="none" xmlns="http://www.w3.org/2000/svg">
<path d="M169.144 32.9941V34.4126L167.828 34.3613C167.133 34.3271 166.438 34.3101 165.743 34.3101C164.672 34.3101 163.658 34.3442 162.701 34.4126L162.53 34.2246L162.701 31.8662L159.129 34.5493C158.491 34.6974 157.927 34.7715 157.437 34.7715C156.229 34.7715 155.295 34.4126 154.634 33.6948C153.973 32.9771 153.643 31.9289 153.643 30.5503C153.643 28.8527 154.093 27.6564 154.993 26.9614C156.155 26.05 158.724 25.2354 162.701 24.5176C162.678 23.1732 162.444 22.1991 162 21.5952C161.373 20.7635 160.405 20.3477 159.095 20.3477C158.787 20.3477 158.468 20.3875 158.138 20.4673C157.819 20.5356 157.494 20.6496 157.164 20.8091L156.395 22.6377L155.215 22.3472L155.25 21.5781L155.232 20.8262L155.215 20.1426C156.958 19.0602 158.212 18.3823 158.975 18.1089C159.533 17.9038 160.308 17.8013 161.299 17.8013C162.644 17.8013 163.737 18.0063 164.581 18.4165C165.424 18.8153 166.039 19.3621 166.426 20.0571C166.814 20.7521 167.007 21.7661 167.007 23.0991C167.007 23.6574 166.985 24.6543 166.939 26.0898C166.893 27.571 166.871 28.7616 166.871 29.6616C166.871 31.0858 166.91 31.9517 166.99 32.2593C167.036 32.4416 167.144 32.584 167.315 32.6865C167.497 32.7891 168.107 32.8916 169.144 32.9941ZM162.701 25.9873C160.695 26.4202 159.391 26.8931 158.787 27.4058C158.183 27.9071 157.881 28.585 157.881 29.4395C157.881 30.1344 158.075 30.6813 158.462 31.0801C158.85 31.4788 159.34 31.6782 159.932 31.6782C160.832 31.6782 161.755 31.1712 162.701 30.1572V25.9873Z" fill="#FFFCF5"/>
<path d="M139.048 23.0479H137.595C137.698 21.7148 137.749 20.4673 137.749 19.3052L137.732 18.314L137.937 18.1772C141.423 18.257 143.56 18.2969 144.346 18.2969C146.613 18.2969 149.125 18.257 151.882 18.1772V19.3735C148.18 24.1701 144.995 28.528 142.329 32.4473L145.405 32.4644C148.083 32.4644 149.575 32.3732 149.883 32.1909C150.19 31.9972 150.435 31.2054 150.618 29.8154L150.737 28.8584H152.241C152.048 30.3395 151.928 32.1112 151.882 34.1733L151.711 34.4126C150.64 34.4468 149.843 34.4639 149.319 34.4639L146.55 34.4126C143.725 34.3442 141.999 34.3101 141.372 34.3101L136.245 34.4126V33.2163C137.396 31.8377 138.752 30.1003 140.312 28.0039C142.648 24.8708 144.562 22.2218 146.055 20.0571H142.927C141.458 20.0571 140.529 20.0913 140.142 20.1597C139.868 20.2052 139.674 20.3021 139.561 20.4502C139.458 20.5869 139.344 21.0369 139.219 21.8003L139.048 23.0479Z" fill="#FFFCF5"/>
<path d="M130.502 9.63232C131.231 9.63232 131.852 9.89437 132.365 10.4185C132.889 10.9312 133.151 11.5578 133.151 12.2983C133.151 13.0275 132.889 13.6541 132.365 14.1782C131.852 14.6909 131.225 14.9473 130.485 14.9473C129.756 14.9473 129.129 14.6909 128.605 14.1782C128.092 13.6541 127.836 13.0275 127.836 12.2983C127.836 11.5578 128.092 10.9312 128.605 10.4185C129.129 9.89437 129.761 9.63232 130.502 9.63232ZM125.734 34.4126V32.9941C127.021 32.9486 127.762 32.8688 127.956 32.7549C128.161 32.641 128.292 32.3219 128.349 31.7979C128.44 31.0801 128.485 29.4964 128.485 27.0469C128.485 25.9873 128.468 25.0075 128.434 24.1074L128.383 22.1079C128.383 21.4471 128.309 21.0426 128.161 20.8945C128.024 20.735 127.642 20.6439 127.016 20.6211L125.734 20.5698V19.2539C128.48 19.0488 130.741 18.5646 132.519 17.8013L132.946 18.1431C132.786 20.3192 132.707 23.4865 132.707 27.645C132.707 30.049 132.746 31.5016 132.826 32.0029C132.883 32.3561 132.986 32.584 133.134 32.6865C133.293 32.7891 134.045 32.8916 135.39 32.9941V34.4126C133.327 34.3442 131.732 34.3101 130.604 34.3101C130.001 34.3101 128.377 34.3442 125.734 34.4126Z" fill="#FFFCF5"/>
<path d="M104.798 34.4126V32.9941C106.017 32.9486 106.729 32.8688 106.935 32.7549C107.037 32.6865 107.117 32.584 107.174 32.4473C107.265 32.1966 107.328 31.0573 107.362 29.0293C107.396 26.9899 107.413 24.8708 107.413 22.6719C107.413 20.8945 107.385 18.6102 107.328 15.8188C107.282 13.7909 107.225 12.6686 107.157 12.4521C107.1 12.2243 106.98 12.0591 106.798 11.9565C106.616 11.8426 105.949 11.7743 104.798 11.7515V10.521C106.325 10.3729 107.561 10.1963 108.507 9.99121C109.464 9.77474 110.335 9.48991 111.122 9.13672C111.338 9.04557 111.492 9 111.583 9C111.754 9 111.839 9.15381 111.839 9.46143L111.805 10.1963C111.76 11.0394 111.72 14.2466 111.686 19.8179L111.651 24.603L111.686 25.543C114.09 23.5036 116.573 21.0426 119.137 18.1602C119.946 18.2171 120.669 18.2456 121.307 18.2456C122.07 18.2456 122.879 18.2171 123.734 18.1602V19.5615C122.469 19.6299 121.706 19.7096 121.444 19.8008C121.182 19.8805 120.794 20.1198 120.282 20.5186C119.769 20.9173 118.339 22.1592 115.992 24.2441L118.453 27.0298C121.279 30.2427 122.948 32.0599 123.46 32.4814C123.791 32.7663 124.252 32.9372 124.845 32.9941V34.4126C123.569 34.3442 122.395 34.3101 121.324 34.3101C120.493 34.3101 119.672 34.3442 118.863 34.4126C117.735 32.9201 116.607 31.5358 115.479 30.2598C113.941 28.5166 112.677 27.1722 111.686 26.2266V28.978C111.686 30.5731 111.754 31.6554 111.891 32.2251C111.948 32.4757 112.062 32.6523 112.232 32.7549C112.403 32.846 113.098 32.9258 114.317 32.9941V34.4126C112.118 34.3442 110.649 34.3101 109.908 34.3101C109.19 34.3101 107.487 34.3442 104.798 34.4126Z" fill="#FFFCF5"/>
<path d="M86.5796 26.2949C86.5796 23.5947 87.2119 21.5667 88.4766 20.2109C89.9919 18.6045 92.1794 17.8013 95.0391 17.8013C97.8874 17.8013 99.9666 18.445 101.277 19.7324C102.587 21.0199 103.242 23.0535 103.242 25.8335C103.242 28.6932 102.485 30.8978 100.969 32.4473C99.4653 33.9967 97.369 34.7715 94.6802 34.7715C92.0369 34.7715 90.026 34.048 88.6475 32.6011C87.2689 31.1541 86.5796 29.0521 86.5796 26.2949ZM91.3135 25.1157C91.3135 28.1463 91.7008 30.3053 92.4756 31.5928C93.0794 32.584 93.9852 33.0796 95.1929 33.0796C96.2524 33.0796 97.0671 32.658 97.6367 31.8149C98.2178 30.9718 98.5083 29.4395 98.5083 27.2178C98.5083 24.1644 98.1551 22.0509 97.4487 20.8774C96.8677 19.9432 95.9619 19.4761 94.7314 19.4761C93.6719 19.4761 92.8345 19.9033 92.2192 20.7578C91.6154 21.6123 91.3135 23.0649 91.3135 25.1157Z" fill="#FFFCF5"/>
<path d="M50.3145 11.8882V10.4355C52.2057 10.5267 53.8748 10.5723 55.3218 10.5723C56.8485 10.5723 58.6087 10.5267 60.6025 10.4355V11.8882C59.3949 11.9338 58.66 12.0249 58.3979 12.1616C58.1473 12.2983 58.022 12.5319 58.022 12.8623C58.022 13.2497 58.3809 15.1068 59.0986 18.4336L61.0298 27.3545L65.4048 18.2798C67.1138 14.7365 68.3385 12.1217 69.0791 10.4355H70.6001L77.7095 28.1919L80.5806 17.5791C81.1958 15.2891 81.5034 13.7111 81.5034 12.8452C81.5034 12.4806 81.3838 12.2414 81.1445 12.1274C80.9053 12.0021 80.1021 11.9224 78.7349 11.8882V10.4355C80.8426 10.5267 82.1813 10.5723 82.751 10.5723C83.446 10.5723 84.6764 10.5267 86.4424 10.4355V11.8882C85.5081 11.9679 84.9043 12.116 84.6309 12.3325C84.3688 12.5376 84.1125 13.0446 83.8618 13.8535C83.4517 15.0954 82.432 18.6672 80.8027 24.5688L78.1196 34.5493H74.8726L68.0366 17.2715L63.6445 26.5171C62.2773 29.411 61.064 32.0884 60.0044 34.5493H57.5605C57.2643 33.1707 56.313 28.8983 54.7065 21.7319L52.895 13.7339C52.7127 12.9364 52.5133 12.4578 52.2969 12.2983C52.0804 12.1274 51.4196 11.9907 50.3145 11.8882Z" fill="#FFFCF5"/>
<path d="M8.93701 35.4294C9.05409 35.4655 9.68672 35.6916 9.74714 35.7799L9.7241 35.8661C9.70208 35.8767 9.67992 35.8805 9.65623 35.886C9.4149 35.7507 9.14881 35.6081 8.93701 35.4294Z" fill="#DD0A32"/>
<path d="M35.5129 32.7112L35.5233 32.7436C35.4517 32.8603 35.3539 33.0483 35.2333 33.1166L35.1822 33.0904C35.1295 33.0235 35.0833 32.951 35.0356 32.8804L35.5129 32.7112Z" fill="#DD0A32"/>
<path d="M35.7891 9.93501C35.9827 9.94051 36.1765 9.94428 36.3703 9.94633C36.4934 10.1659 37.0733 10.9929 37.0528 11.1814L36.9695 11.2282L36.6335 11.3972C36.3622 10.9972 36.0038 10.3694 35.7891 9.93501Z" fill="#DD0A32"/>
<path d="M12.5123 36.8044C12.8121 36.9052 13.1071 37.0363 13.4023 37.1506C14.1225 37.4295 14.8431 37.7124 15.5794 37.946C15.5238 37.9772 15.4641 38.0035 15.4066 38.0315L15.1781 38.1515C14.2587 37.8317 13.3527 37.449 12.4463 37.0941L12.5123 36.8044Z" fill="#DD0A32"/>
<path d="M36.2827 27.6006C36.4366 27.6829 36.609 27.7371 36.7752 27.7886C36.7601 27.8243 36.7443 27.8597 36.728 27.8948C36.547 28.2807 36.0226 29.38 35.7133 29.6195C35.6167 29.6943 35.4555 29.7334 35.3404 29.7752C35.2742 29.803 35.1647 29.8636 35.0932 29.8658C35.0318 29.8677 35.0239 29.8535 34.9873 29.8112C35.2777 29.3869 35.5376 28.947 35.797 28.5033C35.9686 28.2097 36.1568 27.9173 36.2827 27.6006Z" fill="#DD0A32"/>
<path d="M2.70829 15.0078L3.15606 15.1143C2.99012 15.6756 2.85373 16.2441 2.74688 16.8197C2.70792 17.0321 2.64834 17.7144 2.5914 17.8489L2.538 17.8623C2.36991 17.8623 2.20465 17.8533 2.03711 17.8398C2.13435 17.37 2.20344 16.8949 2.30841 16.4262C2.41605 15.9457 2.56278 15.4778 2.70829 15.0078Z" fill="#DD0A32"/>
<path d="M38.4057 14.8406C38.4601 14.8367 38.4478 14.8281 38.4956 14.8661C38.5518 15.1389 38.6465 15.4093 38.7104 15.6822C38.8757 16.3591 38.995 17.0441 39.0682 17.7371L38.6735 17.7786C38.6135 17.7876 38.6096 17.7982 38.5538 17.7678C38.4752 17.3579 38.4184 16.9433 38.3383 16.5331C38.2327 15.9924 38.1015 15.4574 37.9878 14.9184C38.1266 14.8881 38.2656 14.8637 38.4057 14.8406Z" fill="#DD0A32"/>
<path d="M33.0956 33.6377L33.1238 33.6443C33.0515 33.8905 30.8754 35.5403 30.5238 35.7561C30.3378 35.4756 30.169 35.1797 29.9928 34.8927L29.9824 34.8525C30.0822 34.7277 30.7474 34.504 30.9254 34.4424C30.7815 34.5724 30.654 34.6577 30.4689 34.72L30.6594 35.0012C31.0741 34.7116 31.5579 34.2834 31.9933 34.0614C32.3363 33.8865 32.7352 33.7798 33.0956 33.6377Z" fill="#DD0A32"/>
<path d="M34.5537 9.72766C34.8117 9.80614 35.0858 9.84995 35.3522 9.88947C35.6664 10.3038 36.6667 11.8825 36.7923 12.3291C36.7513 12.3918 36.7011 12.4073 36.6359 12.4424C36.528 12.4938 36.4224 12.5569 36.3172 12.6139C35.8356 11.6755 35.2264 10.5291 34.5537 9.72766Z" fill="#DD0A32"/>
<path d="M7.24163 30.7263C7.34102 30.7702 7.9506 31.5091 8.09706 31.6632C8.41281 31.9956 8.74951 32.3073 9.08315 32.6215C8.67038 32.5347 8.26562 32.3865 7.86928 32.2439C7.61511 32.1325 7.41927 31.8669 7.23744 31.6641L6.90068 31.9368C6.56235 31.8397 6.22867 31.7067 5.89648 31.5895C6.36777 31.3632 6.81001 31.0196 7.24163 30.7263Z" fill="#DD0A32"/>
<path d="M18.5854 39.3653C18.9293 39.404 19.2872 39.3577 19.6264 39.4099C19.9644 39.4621 20.3184 39.6398 20.6383 39.7609C21.0132 39.9012 21.39 40.0362 21.7686 40.166L20.4222 40.2235C19.3246 40.2351 18.2351 40.0742 17.1489 39.9355C17.6313 39.7566 18.1083 39.5579 18.5854 39.3653Z" fill="#DD0A32"/>
<path d="M11.3194 36.3677C11.5489 36.4548 11.7777 36.5434 12.0061 36.6334C11.9401 36.8874 11.8728 37.1411 11.804 37.3945C12.6456 37.786 13.5201 38.1621 14.4096 38.4307C14.2659 38.4976 14.1178 38.5573 13.9721 38.6199C13.7842 38.6986 13.5966 38.7729 13.404 38.8393C12.681 38.5836 11.5326 38.0732 10.8931 37.6625C11.0315 37.2297 11.1737 36.7981 11.3194 36.3677Z" fill="#DD0A32"/>
<path d="M30.857 4.46774C31.3291 4.79143 31.7906 5.12957 32.2415 5.48219C32.6924 5.8348 33.1318 6.20118 33.5598 6.58135C33.4015 6.6703 33.2452 6.76245 33.0907 6.85781C32.8224 6.63907 31.2051 5.18151 30.9495 5.19259L30.8745 5.27815C30.8383 5.32814 30.8058 5.36692 30.797 5.43005C30.9986 5.62616 31.2807 5.77755 31.5108 5.94253C31.9366 6.24486 32.3367 6.578 32.7112 6.94193C32.4762 6.94938 32.2405 6.9694 32.0058 6.98382C31.4079 6.45296 30.7506 5.95076 30.082 5.51253C30.3487 5.17047 30.6071 4.82221 30.857 4.46774Z" fill="#DD0A32"/>
<path d="M6.35352 34.4819C6.64335 34.5502 7.5887 34.8919 7.84645 35.0338C8.14698 35.1992 8.43118 35.4246 8.71356 35.6199C9.13899 35.9141 9.56433 36.1915 10.0088 36.4567L10.2083 35.9594C10.4666 36.0498 10.7219 36.1481 10.9743 36.2541C10.9288 36.4688 10.8695 36.6809 10.8141 36.8933L10.6342 37.526C9.34112 36.9067 8.12227 36.0471 7.02595 35.1267C6.80641 34.9425 6.51281 34.7186 6.35352 34.4819Z" fill="#DD0A32"/>
<path d="M28.3796 35.4746C28.3868 35.4758 28.3944 35.4759 28.4013 35.4782C28.4966 35.5105 29.5848 37.4063 29.6925 37.5884C29.3282 37.7522 28.9843 37.9672 28.6299 38.152C28.1207 38.4121 27.6018 38.6515 27.0734 38.87L26.6978 38.7267C26.5104 38.6566 26.3144 38.6069 26.1221 38.5522C27.0118 38.1565 27.8888 37.7694 28.7493 37.3105C28.4299 36.7841 28.1172 36.2537 27.8112 35.7195C28.0014 35.64 28.1902 35.5563 28.3796 35.4746Z" fill="#DD0A32"/>
<path d="M19.5521 1.1571C20.2959 1.1076 21.064 1.15791 21.8048 1.22491C21.7426 1.5313 21.695 1.84073 21.632 2.14722C21.2158 2.08789 20.774 2.11061 20.3552 2.12765C19.7549 2.20278 19.1519 2.38062 18.5808 2.5766C18.5322 2.12595 18.4957 1.67433 18.4712 1.22174C18.8308 1.18877 19.1912 1.16723 19.5521 1.1571Z" fill="#DD0A32"/>
<path d="M19.9353 1.62355C20.3618 1.61842 20.7911 1.64114 21.217 1.66069L21.131 1.95575C20.7957 1.90924 20.4414 1.92016 20.1034 1.91857C19.7001 1.91836 19.2856 1.92782 18.8867 1.98822C18.8729 1.87978 18.8724 1.76794 18.8672 1.65872C19.2219 1.63384 19.5798 1.63252 19.9353 1.62355Z" fill="#FEFEFE"/>
<path d="M27.3334 35.9396C27.3494 35.9376 27.3778 35.945 27.3941 35.9476C27.6544 36.2986 27.8476 36.7432 28.0507 37.132C27.1589 37.5081 26.3087 37.9999 25.4024 38.3379C25.1643 38.2428 24.9253 38.1623 24.6766 38.1004C25.0528 37.9062 25.4493 37.7528 25.8349 37.5785C26.3099 37.3638 26.7781 37.1325 27.2516 36.9141C27.2015 36.81 27.1351 36.6245 27.0339 36.5713C26.0382 36.982 25.0887 37.5047 24.0778 37.8813C23.7996 37.8055 23.5285 37.6993 23.2612 37.5919C24.6337 37.1325 26.0035 36.5102 27.3334 35.9396Z" fill="#DD0A32"/>
<path d="M24.7373 1.81318C25.7916 2.10919 27.0466 2.48627 28.0335 2.9584C27.8812 3.31842 27.7061 3.669 27.5295 4.01758L27.4499 4.16268C26.431 3.73194 25.4075 3.31945 24.4009 2.85925L24.7373 1.81318Z" fill="#DD0A32"/>
<path d="M25.0716 2.41249C25.8126 2.55573 26.6559 2.92097 27.363 3.20381C27.3293 3.31432 27.3011 3.42647 27.2432 3.52716C26.5099 3.17919 25.7113 2.91078 24.9204 2.73044L25.0716 2.41249Z" fill="#FEFEFE"/>
<path d="M3.56161 26.6161C3.67217 26.7533 3.94719 27.547 4.05789 27.7827C4.40898 28.5308 4.78331 29.2671 5.18089 29.9915L4.80467 30.3108C4.23632 29.3029 3.73436 28.2714 3.21281 27.2397C2.84189 27.3225 2.478 27.4327 2.11499 27.5443C2.21071 27.8063 2.31161 28.0663 2.41772 28.3242C2.80869 29.1897 3.24345 30.0326 3.72203 30.853C3.48337 30.7876 3.22994 30.6958 3.00547 30.592C2.81005 30.3192 2.6507 30.0202 2.48424 29.7292C2.00588 28.8927 1.58171 28.0494 1.24658 27.145C2.02323 26.9909 2.80073 26.8373 3.56161 26.6161Z" fill="#DD0A32"/>
<path d="M34.4994 33.0554L34.5299 33.0656C34.6586 33.2446 34.7942 33.406 34.9457 33.5664C33.8435 34.7844 32.5718 35.8159 31.1963 36.7124C30.8404 36.9444 30.4773 37.1909 30.0921 37.3719C29.8049 36.9054 29.5437 36.4161 29.2644 35.9438L28.8857 35.3075C29.0853 35.2254 29.2939 35.1511 29.4733 35.0297C29.7972 35.4772 30.0756 35.9793 30.3703 36.4478C31.6897 35.618 32.8966 34.6109 34.0176 33.5322L33.8516 33.3241L34.4994 33.0554Z" fill="#DD0A32"/>
<path d="M19.2357 0.0162268C19.4966 -0.0100148 19.7727 0.00363618 20.0355 0.00291227C21.0808 3.38824e-05 22.1077 0.0746132 23.1377 0.256926C23.0353 0.954073 22.9204 1.64915 22.793 2.34215L22.215 2.22652C22.2403 1.72662 22.3601 1.22905 22.3996 0.728481C22.1496 0.688287 21.8846 0.681962 21.6318 0.665881C21.0684 0.624601 20.5043 0.606503 19.9394 0.611579C19.2108 0.612372 18.4855 0.661813 17.7636 0.759902C17.881 1.4564 17.9737 2.15617 18.0417 2.8592C17.8399 2.97833 17.6524 3.11221 17.4636 3.25051C17.4333 2.86405 17.347 2.47395 17.2793 2.09247L16.9526 0.259209C17.7115 0.123546 18.4661 0.0546542 19.2357 0.0162268Z" fill="#DD0A32"/>
<path d="M28.541 5.36941C29.0749 4.5111 29.6261 3.66402 30.1945 2.82819C30.5766 3.01002 30.9412 3.26274 31.2969 3.49122C31.6352 3.70622 31.9678 3.92954 32.2949 4.16118C32.622 4.39282 32.9431 4.63249 33.2582 4.8802C33.5733 5.12792 33.8821 5.38336 34.1844 5.64653C34.4867 5.90969 34.7822 6.18027 35.071 6.45824C34.9007 6.57178 34.6413 6.71921 34.4407 6.75854C34.2897 6.54347 34.0317 6.35402 33.8355 6.17828C32.8025 5.25307 31.6952 4.35892 30.4867 3.67178C30.0965 4.23877 29.7075 4.81764 29.3371 5.39766C29.5904 5.59001 29.8616 5.7594 30.1182 5.94734C30.5079 6.23841 30.8831 6.5472 31.2436 6.87374C30.8602 6.78953 30.3954 6.70565 30.0401 6.54156C29.8239 6.4417 29.6304 6.23748 29.4444 6.08889L28.541 5.36941Z" fill="#DD0A32"/>
<path d="M36.3106 1.59434C36.5972 1.74029 36.8718 1.90097 37.1304 2.09295C37.6854 2.50495 37.9906 3.02852 38.0868 3.71444C38.2064 4.56847 37.9506 5.46211 37.4328 6.14665C36.7832 7.00547 35.7348 7.37531 34.7021 7.51766C34.3121 7.56487 33.9341 7.55891 33.5435 7.53451C34.3775 7.41097 35.5014 7.07612 36.1445 6.52659C36.8979 5.88278 37.1473 4.95991 36.856 4.01432C36.6924 3.48313 36.4377 3.00476 36.3309 2.45043C36.2747 2.15834 36.2859 1.88888 36.3106 1.59434Z" fill="#DD0A32"/>
<path d="M32.7285 9.23951C33.1091 9.29305 33.4809 9.47292 33.8648 9.54498C34.2024 10.0675 34.5957 10.5506 34.9149 11.0866C35.3078 11.7463 35.6038 12.4559 35.948 13.1408C36.6411 12.9067 37.3326 12.6062 38.0023 12.3139C37.637 11.5068 37.2438 10.6877 36.7556 9.94723C36.9732 9.9206 37.1885 9.88578 37.4046 9.84919C37.5176 10.0752 37.6518 10.2949 37.776 10.5152C38.148 11.2027 38.5888 11.9859 38.84 12.7225C37.7847 13.1579 36.7202 13.5692 35.6463 13.9566C35.5669 13.6501 35.4234 13.3461 35.2896 13.0594C34.816 12.0449 34.2223 11.157 33.5541 10.2612C33.292 9.90971 33.0337 9.55555 32.7285 9.23951Z" fill="#DD0A32"/>
<path d="M23.7482 0.367731C25.7817 0.798731 27.8943 1.49658 29.6949 2.54627C29.5296 3.05684 29.1924 3.55746 28.9291 4.02492C28.7128 4.40915 28.5095 4.80014 28.3191 5.19787C28.0653 4.99445 27.7991 4.79972 27.5201 4.63199C27.1406 4.40376 26.7328 4.2014 26.3861 3.92382C26.5572 3.98517 26.7241 4.05565 26.8916 4.12598C27.2106 4.26378 27.5278 4.40549 27.8433 4.55113C28.2086 3.95179 28.4782 3.29946 28.8493 2.70072C27.9989 2.33865 27.1387 1.97888 26.263 1.68233C25.6293 1.4677 24.9836 1.29218 24.3378 1.11818C24.2182 1.63184 24.0901 2.17173 23.8969 2.6631C23.657 2.59117 23.4188 2.51344 23.1826 2.42992C23.4114 1.75947 23.5963 1.05929 23.7482 0.367731Z" fill="#DD0A32"/>
<path d="M35.9022 25.6323C36.6589 26.0032 37.4652 26.2949 38.2414 26.6237C38.5271 26.7447 38.8205 26.8601 39.0946 27.0053C38.819 27.7271 38.4986 28.4286 38.1336 29.1096C38.022 28.9906 37.919 28.8968 37.7778 28.8153L37.5259 28.9376C37.6137 28.7383 37.7233 28.5463 37.8178 28.3498C37.9926 27.9793 38.1627 27.6066 38.328 27.2317L38.0859 27.1621C37.8046 27.802 37.4814 28.464 37.1026 29.0509C36.8613 29.1794 36.5735 29.2834 36.314 29.3714L36.2824 29.3532C36.6698 28.666 37.0542 27.9703 37.3852 27.2538L36.1775 26.7431C35.7624 27.7802 35.2745 28.6453 34.6477 29.5703C34.4859 29.4854 34.3329 29.3783 34.1792 29.2794C34.8435 28.0934 35.4359 26.9122 35.9022 25.6323Z" fill="#DD0A32"/>
<path d="M36.7774 0.0352249C36.2221 0.461381 35.8303 0.981482 35.74 1.69344C35.634 2.52877 36.0949 3.06052 36.3708 3.78588C36.7348 4.7427 36.6482 5.74471 35.8041 6.40168C35.135 6.92245 34.1307 7.13124 33.3081 7.2369C33.6632 7.04255 34.0645 6.90708 34.4406 6.75868C34.6412 6.71935 34.9006 6.57192 35.0709 6.45838C35.2968 6.2988 35.4805 6.13606 35.5351 5.84922C35.6125 5.44297 35.3494 4.95739 35.1193 4.63666C34.965 4.42168 34.7737 4.23646 34.6121 4.02763C34.3211 3.65196 34.217 3.14586 34.2874 2.67993C34.4045 1.90474 35.0189 1.14315 35.6363 0.692601C35.9826 0.439854 36.384 0.208178 36.7774 0.0352249Z" fill="#DD0A32"/>
<path d="M0.018554 19.597C1.20626 19.6337 2.39387 19.7737 3.58037 19.7954C3.57572 21.6405 3.76569 23.4715 4.30605 25.2411C3.47269 25.3655 2.63813 25.4811 1.80235 25.588C1.57373 24.8561 1.42281 24.1095 1.29438 23.3544C1.23206 22.9617 1.18266 22.5673 1.14616 22.1714L1.6747 22.1115C1.85895 23.0705 1.95177 24.0381 2.16497 24.9942C2.59659 24.8765 3.04977 24.8134 3.48623 24.7096C3.4061 24.3606 3.3357 24.0096 3.27503 23.6567C3.21439 23.3038 3.16356 22.9494 3.12253 22.5937C3.08151 22.2379 3.05036 21.8814 3.0291 21.5239C3.00784 21.1664 2.9965 20.8086 2.99507 20.4505C1.99627 20.3925 0.999654 20.3043 0 20.2588C0.0179856 20.0395 0.0148914 19.817 0.018554 19.597Z" fill="#DD0A32"/>
<path d="M0.849645 31.4653C2.00018 31.7748 3.11014 32.2095 4.23989 32.5838C6.82481 33.4293 9.39782 34.3097 11.9589 35.2249C13.2435 35.6649 14.5257 36.1114 15.8057 36.5643C16.4016 36.7687 17.0414 36.9188 17.6162 37.1741L17.2367 37.3267C16.9665 37.4254 16.7069 37.5491 16.432 37.6359C16.07 37.4693 15.6875 37.3389 15.3138 37.2005C14.5607 36.9217 13.8009 36.6603 13.0489 36.3784L9.21872 34.9327C8.12846 34.5063 7.03491 34.0885 5.93808 33.6794C4.61926 33.2074 3.30561 32.7214 1.99716 32.2213C1.58895 32.0653 1.16185 31.9554 0.762207 31.7773L0.849645 31.4653Z" fill="#DD0A32"/>
<path d="M35.9842 16.8729C35.9913 16.8931 35.9929 16.8962 35.9986 16.9201C36.0476 17.1239 36.071 17.3429 36.1057 17.55C36.2221 18.2431 36.3066 18.9225 36.3357 19.6252C36.4787 23.0786 35.6271 26.1454 33.8161 29.0807L33.5906 28.898C33.4244 28.7716 33.2529 28.6593 33.0767 28.5477C34.9705 25.202 35.6621 22.1847 35.2748 18.3456C35.6179 17.881 35.8134 17.4195 35.9842 16.8729Z" fill="#DD0A32"/>
<path d="M1.1064 30.7131C1.92677 30.9257 2.72982 31.2332 3.54233 31.4757C6.80727 32.4796 10.0558 33.5341 13.2879 34.6392C14.7424 35.1465 16.2064 35.6245 17.68 36.0733C18.1581 36.2165 18.6248 36.4046 19.1148 36.5032C18.9773 36.579 18.8299 36.6378 18.6858 36.7C18.4723 36.7894 18.2646 36.8831 18.0577 36.987C17.2571 36.6697 16.4152 36.4241 15.6007 36.1411L9.16328 33.9544L3.32173 31.9128C2.54046 31.6369 1.77344 31.3351 0.984863 31.079L1.1064 30.7131Z" fill="#DD0A32"/>
<path d="M1.34488 13.1192C1.86859 13.3021 2.38833 13.4978 2.91449 13.6733C3.51412 13.8734 4.12626 14.0547 4.71067 14.2964C4.30214 15.3938 3.97423 16.5102 3.79822 17.67C3.71094 18.245 3.66983 18.824 3.60889 19.4019C2.75672 19.3142 1.88087 19.269 1.03634 19.1321C1.04486 18.883 1.08177 18.6303 1.10886 18.3823C1.2413 17.1712 1.50995 15.9929 1.85968 14.8272L2.38864 14.9571C2.01307 16.211 1.83464 17.2689 1.66407 18.566C2.10798 18.5894 2.55148 18.637 2.99413 18.6773C3.10627 17.1965 3.34997 16.0675 3.78164 14.6503C3.11661 14.3898 2.35769 14.2065 1.67055 13.999C1.53117 14.5427 1.37081 15.0811 1.23641 15.6263C0.927327 16.8796 0.717679 18.1479 0.68849 19.4394C0.463726 19.4383 0.238281 19.4245 0.0136719 19.4152C0.186005 17.2225 0.534582 15.1773 1.34488 13.1192Z" fill="#DD0A32"/>
<path d="M22.2772 37.8124C23.0421 37.9655 23.7983 38.242 24.5395 38.4853L27.1842 39.333L32.3442 41.0189C33.1515 41.2839 33.9903 41.5001 34.7816 41.8068L34.4053 42.7629L33.9369 42.5919L24.8374 39.5375C23.6358 39.1218 22.4248 38.7338 21.2422 38.2657C21.5891 38.1191 21.9341 37.968 22.2772 37.8124Z" fill="#DD0A32"/>
<path d="M20.7643 38.4302C20.9453 38.4416 21.714 38.7452 21.9364 38.8203L25.4345 40.0016L32.2429 42.2699C32.9404 42.5022 33.6424 42.7169 34.3376 42.9571C34.1973 43.2971 34.0854 43.6542 33.958 44L33.4473 43.8093C33.0968 43.6642 32.7262 43.5495 32.3691 43.4201L29.782 42.4951L23.2855 40.1829C22.0705 39.7527 20.8459 39.3499 19.6411 38.8906C20.0205 38.7493 20.3949 38.5958 20.7643 38.4302Z" fill="#DD0A32"/>
<path d="M0.027832 20.6097C0.858075 20.7039 1.68921 20.7894 2.52128 20.8661C2.53242 21.4139 2.56942 21.96 2.6323 22.5044C2.69518 23.0487 2.78364 23.5888 2.89769 24.1247L2.38604 24.2301C2.17461 23.2343 2.01964 22.2755 2.02094 21.2546C1.58667 21.2328 1.1456 21.2093 0.710941 21.2202C0.773404 21.7421 0.794424 22.2676 0.860695 22.79C0.93057 23.3326 1.01919 23.8721 1.12656 24.4086C1.23394 24.945 1.35981 25.4771 1.50418 26.0048C1.87854 25.9198 2.27893 25.886 2.65921 25.8257C3.23296 25.7305 3.80547 25.6282 4.37671 25.5188C4.88617 27.3065 5.90028 29.0428 7.06867 30.4786C6.65796 30.7374 6.25149 31.0026 5.84926 31.2744C5.75295 31.345 5.64811 31.4068 5.54775 31.4717C5.13703 31.3186 4.70401 31.2227 4.30199 31.0479C4.14176 30.74 3.92889 30.4536 3.75683 30.1503C3.4192 29.5554 3.11871 28.9445 2.8158 28.3315C2.97897 28.2452 3.15586 28.1782 3.32549 28.1052C3.79514 29.1154 4.3398 30.0782 4.87909 31.0518C5.26626 30.8115 5.60808 30.5089 5.99492 30.2717C5.83847 29.9927 5.64551 29.731 5.47862 29.4575C5.1921 28.9879 4.92402 28.4991 4.67566 28.0082C4.47832 27.6171 4.29238 27.2207 4.11784 26.8189C4.02423 26.6029 3.94961 26.3479 3.82429 26.15C3.77113 26.1911 3.71238 26.2383 3.64893 26.2626C3.43284 26.3456 3.13533 26.3659 2.9042 26.4063C2.29376 26.513 1.68266 26.6157 1.07089 26.7144C0.366388 24.8241 0.0951639 22.6141 0.027832 20.6097Z" fill="#DD0A32"/>
<path d="M4.88884 7.21849C5.21372 7.47033 5.52547 7.74996 5.84193 8.01316C6.41497 8.48985 7.02791 8.96895 7.51781 9.53193C7.24843 9.87971 6.96428 10.214 6.70931 10.5732C5.95565 11.6349 5.31487 12.8198 4.80021 14.016L4.36146 13.8331C3.43482 13.4108 2.45761 13.0859 1.55322 12.6189C1.6575 12.4187 1.72825 12.1889 1.81791 11.9801C1.95704 11.6639 2.10749 11.3532 2.26928 11.0479C2.50014 10.6032 2.74825 10.1684 3.01358 9.74333C3.2789 9.31829 3.56061 8.9044 3.85872 8.50168C4.18801 8.0619 4.54305 7.64494 4.88884 7.21849Z" fill="#DD0A32"/>
<path d="M4.93611 8.17654C5.48234 8.64968 6.01758 9.14103 6.55795 9.62163C6.24503 10.0476 5.91996 10.4694 5.63321 10.9134C5.18209 11.6119 4.80036 12.3571 4.43396 13.1025C4.01207 12.9411 3.59646 12.76 3.17997 12.5851C3.64511 11.7102 4.15902 10.865 4.72169 10.0494C4.86377 9.8508 5.01757 9.65831 5.16546 9.46387C4.99127 9.35286 4.81614 9.24333 4.64009 9.13527C4.47274 9.47639 4.17984 9.79727 3.9711 10.1201C3.46988 10.8952 3.01024 11.6738 2.60585 12.5045L2.30322 12.4191C2.38645 12.1673 2.5195 11.9204 2.63797 11.6832C3.26068 10.436 4.06988 9.26574 4.93611 8.17654Z" fill="#FEFEFE"/>
<path d="M5.49442 9.49083C5.64501 9.54115 5.81427 9.68136 5.94941 9.77014C5.37474 10.5758 4.80872 11.3627 4.33297 12.2325C4.17549 12.1444 4.02666 12.0461 3.87695 11.9455C4.11874 11.5187 4.37457 11.1005 4.64444 10.691C4.91432 10.2814 5.19764 9.88137 5.49442 9.49083Z" fill="#DD0A32"/>
<path d="M9.98565 2.83943C10.1885 2.90651 11.7553 5.55685 11.9606 5.90123C10.4973 6.62115 8.8796 8.01544 7.78719 9.22829L7.51598 8.95247C6.77373 8.20226 5.9751 7.51525 5.20654 6.7938C6.63532 5.23625 8.17486 3.93352 9.98565 2.83943Z" fill="#DD0A32"/>
<path d="M9.78178 3.70305L9.80603 3.7064C9.90532 3.78735 10.9257 5.422 11.0169 5.6217C10.3431 6.05342 9.7003 6.49263 9.08913 7.01009C8.6367 7.39315 8.20755 7.82929 7.73487 8.18406C7.65713 8.18811 7.64972 8.16977 7.58921 8.12442C7.10936 7.65472 6.67928 7.13791 6.19873 6.6697C7.24525 5.54219 8.46587 4.50517 9.78178 3.70305Z" fill="#FEFEFE"/>
<path d="M9.64981 4.36806C9.93009 4.68745 10.1563 5.09314 10.4027 5.44223C9.76018 5.81585 9.18076 6.29411 8.62941 6.78969C8.45847 6.94331 8.05623 7.37237 7.88497 7.46799L7.84781 7.45152C7.56159 7.17504 7.27752 6.89635 6.99561 6.61546C7.8298 5.67959 8.61265 5.06814 9.64981 4.36806Z" fill="#DD0A32"/>
<path d="M9.57225 5.0056L9.60106 5.0131C9.67517 5.0771 9.71963 5.1731 9.76828 5.25698C9.04161 5.75019 8.39046 6.31373 7.74363 6.9046L7.5166 6.73543C8.17553 6.11924 8.84837 5.54466 9.57225 5.0056Z" fill="#FEFEFE"/>
<path d="M16.2873 0.363985C16.2888 0.36433 16.2904 0.364296 16.2917 0.365037C16.2919 0.365149 16.3313 0.39077 16.3317 0.391278C16.4202 0.520245 17.0829 3.1033 17.1879 3.48004C17.0269 3.62993 16.8556 3.89607 16.6637 3.99131C16.4298 4.10736 16.1544 4.16257 15.9043 4.23463C15.5513 4.33634 15.1974 4.44503 14.8508 4.56723C13.9198 4.89552 13.0396 5.32965 12.1529 5.75955L11.8395 5.19512C11.3517 4.335 10.7673 3.50908 10.3228 2.62792C10.619 2.45186 10.9359 2.29968 11.2437 2.14504C11.5795 1.97336 11.9199 1.81118 12.2647 1.65848C12.6096 1.50579 12.9584 1.36283 13.3112 1.22959C13.6641 1.09635 14.0203 0.973049 14.3801 0.85968C14.7398 0.746311 15.1024 0.64306 15.4678 0.549918C15.7386 0.482318 16.0116 0.406868 16.2873 0.363985Z" fill="#DD0A32"/>
<path d="M15.7106 1.15232L15.7657 1.14441C15.7781 1.15257 15.7929 1.15783 15.8028 1.16888C15.827 1.1961 16.1463 2.45174 16.1866 2.59223C16.2631 2.85223 16.3448 3.11062 16.4316 3.36739C15.7883 3.62342 15.0987 3.76526 14.4467 4.00542C13.7622 4.25759 13.1161 4.60709 12.4294 4.8465L12.3235 4.65425C11.9998 4.03838 11.6227 3.45206 11.3174 2.82576C11.64 2.63285 12.001 2.48617 12.3443 2.33316C13.4365 1.84656 14.5426 1.42194 15.7106 1.15232Z" fill="#FEFEFE"/>
<path d="M15.3743 1.71075C15.5464 1.88633 15.7256 2.67947 15.8204 2.95259C15.1333 3.16956 14.4551 3.39971 13.7918 3.68247C13.4246 3.83906 13.0637 4.05115 12.6919 4.18726L12.6497 4.16268C12.4703 3.7818 12.2617 3.41698 12.082 3.03745C12.344 2.8987 12.6093 2.76684 12.8781 2.6419C13.1468 2.51699 13.4187 2.39914 13.6936 2.28834C13.9685 2.17755 14.2461 2.074 14.5264 1.97767C14.8068 1.88134 15.0894 1.79236 15.3743 1.71075Z" fill="#DD0A32"/>
<path d="M15.0433 2.30832L15.0931 2.31958C15.1582 2.40086 15.1857 2.50635 15.2206 2.60331C14.4126 2.8674 13.6489 3.14479 12.8866 3.52386C12.8699 3.53154 12.8478 3.53037 12.8296 3.53191C12.7675 3.45747 12.7402 3.3437 12.7075 3.25293C13.4798 2.9086 14.2495 2.59847 15.0433 2.30832Z" fill="#FEFEFE"/>
<path d="M39.0079 13.2054C39.1215 13.3132 39.1925 13.6804 39.2464 13.8429C39.5745 14.8303 39.8532 15.8664 40.0174 16.8951C40.1337 17.6237 40.1918 18.359 40.2922 19.0893C39.4741 19.1042 38.6593 19.0973 37.8412 19.09C37.8029 18.6913 37.7901 18.2929 37.7407 17.8945C37.6236 16.9504 37.4091 16.0146 37.151 15.0998C37.3261 15.0442 37.5082 15.0048 37.6864 14.9598C38.0455 16.0797 38.2568 17.4049 38.3572 18.5753C38.7699 18.5591 39.1827 18.5532 39.5957 18.5575C39.5625 18.1789 39.5187 17.8015 39.4643 17.4253C39.4099 17.0491 39.345 16.6748 39.2696 16.3023C39.1942 15.9298 39.1083 15.5597 39.0121 15.192C38.9159 14.8243 38.8094 14.4596 38.6926 14.0979C37.9564 14.3165 37.2322 14.5701 36.5002 14.8024C37.0145 16.3163 37.2739 17.9408 37.3308 19.5347C37.8972 19.5519 38.4625 19.5343 39.0289 19.5405C39.4536 19.5452 39.8777 19.5733 40.3025 19.582C40.3929 21.7042 39.9709 24.5349 39.2335 26.5398C38.1412 26.1555 37.0584 25.7459 35.9852 25.311C36.2127 24.6896 36.3566 24.0329 36.4636 23.3811C36.614 22.47 36.694 21.5833 36.7234 20.6607C37.6025 20.6516 38.4848 20.6769 39.3636 20.7014C39.3533 21.9303 39.0968 23.4242 38.751 24.6086C38.5794 24.5921 38.4077 24.5768 38.2359 24.5629C38.4661 23.4556 38.6475 22.3404 38.7801 21.2173C38.3179 21.118 37.8524 21.0381 37.3836 20.9777C37.3253 21.8214 37.2513 22.6677 37.1001 23.5006C37.0027 24.037 36.8643 24.566 36.7351 25.0954L37.2586 25.2425C37.337 24.8692 37.4417 24.5008 37.5237 24.1279C37.6241 23.6712 37.6988 23.2111 37.7717 22.7494C37.8155 22.4716 37.8792 22.1803 37.8667 21.8988C38.0465 21.9103 38.2188 21.9366 38.3946 21.9757C38.3758 22.5304 38.2407 23.1094 38.1345 23.6533C38.0218 24.2312 37.9165 24.8133 37.7648 25.3825C38.1323 25.502 38.5012 25.6173 38.8714 25.7283C39.0471 25.2669 39.1472 24.7575 39.248 24.2756C39.5141 23.004 39.6905 21.7432 39.7831 20.4464C38.7721 20.3424 37.7332 20.3723 36.717 20.3665C36.6993 19.3982 36.6459 18.432 36.463 17.4789C36.3746 17.0188 36.2322 16.5698 36.1451 16.1121C36.0989 15.8693 36.0987 15.6161 36.0628 15.3711C36.0113 15.0196 35.9089 14.679 35.8135 14.3376C36.2084 14.1613 36.6339 14.0377 37.0422 13.8965L39.0079 13.2054Z" fill="#DD0A32"/>
<path d="M25.5616 24.3965C25.5647 24.3971 25.568 24.3971 25.571 24.3984C25.6901 24.452 26.386 26.2696 26.4706 26.5144C26.3558 26.5508 26.2436 26.603 26.1335 26.6515C25.0399 27.1334 23.9357 27.738 22.9779 28.4542C21.3335 29.6837 19.8144 31.5269 18.7476 33.2683C18.323 33.9613 17.8741 34.7047 17.5792 35.4648C17.0659 35.3126 16.5675 35.1015 16.0528 34.9452C15.5778 34.7936 15.1039 34.6382 14.6313 34.479C15.1439 33.5843 15.7401 32.7363 16.2472 31.8381C16.7928 31.7719 17.341 31.6199 17.8719 31.4827C17.9492 30.9741 17.9655 30.4418 18.0152 29.9287C18.06 29.4652 18.1407 29.002 18.1552 28.5364C18.3727 28.3449 18.662 28.2002 18.9112 28.0509C19.4381 27.731 19.9722 27.4236 20.5134 27.1286L25.5616 24.3965Z" fill="#DD0A32"/>
<path d="M25.2481 25.1253C25.3382 25.1132 25.4291 25.1042 25.5174 25.1323C25.6656 25.1795 25.784 25.3038 25.8464 25.4435C25.9123 25.5909 25.928 25.7645 25.8675 25.9161C25.8027 26.0785 25.6833 26.1544 25.5267 26.2167C25.4535 26.2194 25.376 26.2256 25.3045 26.206C25.1531 26.1644 25.0228 26.0512 24.9513 25.9128C24.8779 25.771 24.8618 25.6012 24.9156 25.4503C24.9765 25.2791 25.0886 25.1991 25.2481 25.1253Z" fill="#FEFEFE"/>
<path d="M25.297 25.3776C25.3144 25.3761 25.3319 25.3749 25.3494 25.374C25.4464 25.3697 25.5229 25.3912 25.5939 25.4607C25.6509 25.5166 25.6819 25.5887 25.6805 25.6687C25.6784 25.7885 25.6287 25.8495 25.5441 25.9282C25.4517 25.9394 25.3764 25.9336 25.3011 25.8738C25.2317 25.8186 25.1926 25.7407 25.1867 25.6527C25.1784 25.5297 25.216 25.4659 25.297 25.3776Z" fill="#DD0A32"/>
<path d="M16.6193 32.5735C16.863 32.5476 17.1037 32.5675 17.3231 32.686C17.5805 32.825 17.7567 33.0706 17.83 33.3513C17.9054 33.6407 17.8633 33.938 17.7028 34.191C17.5231 34.4745 17.2601 34.6335 16.9387 34.7057C16.6814 34.7242 16.4373 34.7066 16.2057 34.5791C16.1911 34.5711 16.1767 34.5628 16.1625 34.554C16.1483 34.5453 16.1344 34.5363 16.1206 34.5268C16.1069 34.5174 16.0935 34.5077 16.0802 34.4976C16.067 34.4875 16.0541 34.4771 16.0414 34.4663C16.0287 34.4556 16.0163 34.4445 16.0042 34.4331C15.992 34.4217 15.9802 34.41 15.9687 34.398C15.9571 34.3861 15.9459 34.3738 15.935 34.3612C15.9241 34.3487 15.9135 34.3359 15.9032 34.3228C15.8929 34.3097 15.883 34.2963 15.8734 34.2827C15.8638 34.2691 15.8546 34.2553 15.8457 34.2413C15.8368 34.2272 15.8283 34.2129 15.8201 34.1984C15.8119 34.1839 15.8042 34.1692 15.7967 34.1544C15.7893 34.1395 15.7823 34.1244 15.7756 34.1091C15.769 34.0939 15.7627 34.0785 15.7568 34.0629C15.751 34.0473 15.7455 34.0317 15.7404 34.0158C15.7354 34 15.7307 33.984 15.7264 33.9679C15.7213 33.949 15.7166 33.93 15.7125 33.9109C15.7083 33.8917 15.7046 33.8725 15.7014 33.8532C15.6983 33.8339 15.6956 33.8145 15.6934 33.7951C15.6912 33.7756 15.6895 33.7561 15.6883 33.7366C15.6871 33.717 15.6863 33.6975 15.6861 33.6779C15.6859 33.6583 15.6861 33.6388 15.6869 33.6192C15.6877 33.5997 15.689 33.5801 15.6907 33.5606C15.6925 33.5411 15.6947 33.5217 15.6975 33.5023C15.7002 33.4829 15.7035 33.4636 15.7072 33.4444C15.7109 33.4252 15.7151 33.406 15.7198 33.387C15.7245 33.368 15.7297 33.3491 15.7353 33.3304C15.7409 33.3117 15.7471 33.2931 15.7536 33.2746C15.7602 33.2562 15.7673 33.2379 15.7748 33.2199C15.7823 33.2018 15.7903 33.1839 15.7987 33.1663C15.8071 33.1486 15.816 33.1311 15.8253 33.1139C15.8346 33.0967 15.8443 33.0797 15.8545 33.063C16.0321 32.772 16.2994 32.6464 16.6193 32.5735Z" fill="#FEFEFE"/>
<path d="M16.6348 32.8286C16.8368 32.8155 17.0208 32.828 17.2022 32.9296C17.3778 33.0281 17.5077 33.186 17.5568 33.3827C17.6115 33.6016 17.5691 33.8485 17.4518 34.0403C17.3178 34.2595 17.1206 34.3728 16.8758 34.4289C16.6991 34.4384 16.5394 34.4239 16.3791 34.342C16.356 34.3302 16.3334 34.3173 16.3115 34.3033C16.2897 34.2893 16.2685 34.2742 16.2481 34.2581C16.2277 34.2419 16.2082 34.2249 16.1895 34.2068C16.1708 34.1887 16.1531 34.1697 16.1363 34.1499C16.1195 34.1301 16.1037 34.1095 16.0889 34.0881C16.0742 34.0667 16.0605 34.0446 16.048 34.0219C16.0354 33.9991 16.024 33.9758 16.0138 33.9519C16.0035 33.928 15.9944 33.9037 15.9866 33.8789C15.9193 33.6661 15.9504 33.4353 16.0587 33.2415C16.1898 33.0069 16.3844 32.8961 16.6348 32.8286Z" fill="#DD0A32"/>
<path d="M16.7159 33.0858C16.8109 33.083 16.912 33.0925 17.0003 33.1299C17.0162 33.1365 17.0316 33.144 17.0467 33.1524C17.0618 33.1607 17.0764 33.1698 17.0905 33.1796C17.1046 33.1895 17.1182 33.2 17.1312 33.2113C17.1442 33.2226 17.1565 33.2346 17.1683 33.2471C17.18 33.2597 17.1911 33.2729 17.2014 33.2867C17.2118 33.3004 17.2214 33.3147 17.2302 33.3294C17.2391 33.3442 17.2471 33.3594 17.2544 33.3751C17.2616 33.3907 17.268 33.4066 17.2735 33.4229C17.3217 33.5654 17.3111 33.7301 17.2418 33.8638C17.146 34.049 17.0043 34.1115 16.8148 34.1656C16.7058 34.1606 16.5988 34.1463 16.5014 34.0936C16.3792 34.0274 16.284 33.9142 16.2473 33.7794C16.2428 33.7622 16.2391 33.7449 16.2363 33.7275C16.2335 33.71 16.2315 33.6924 16.2305 33.6747C16.2294 33.657 16.2292 33.6393 16.2299 33.6217C16.2306 33.604 16.2322 33.5863 16.2346 33.5688C16.2371 33.5513 16.2404 33.5339 16.2446 33.5167C16.2488 33.4995 16.2538 33.4825 16.2597 33.4658C16.2656 33.4491 16.2723 33.4327 16.2798 33.4167C16.2873 33.4006 16.2956 33.385 16.3046 33.3698C16.3977 33.2106 16.5439 33.1329 16.7159 33.0858Z" fill="#FEFEFE"/>
<path d="M19.3042 28.7341C19.5759 28.7036 19.8485 28.7131 20.0931 28.8506C20.3242 28.9805 20.4733 29.1974 20.5435 29.4503C20.6241 29.7409 20.5963 30.0579 20.4448 30.3211C20.2635 30.6361 19.965 30.8041 19.625 30.8905C19.388 30.918 19.1774 30.9155 18.9564 30.8092C18.9409 30.8017 18.9256 30.7938 18.9105 30.7856C18.8954 30.7773 18.8805 30.7687 18.8658 30.7597C18.8512 30.7507 18.8367 30.7413 18.8225 30.7316C18.8084 30.7219 18.7944 30.7118 18.7807 30.7014C18.767 30.691 18.7536 30.6803 18.7404 30.6692C18.7273 30.6581 18.7144 30.6467 18.7018 30.6349C18.6892 30.6232 18.6769 30.6112 18.6649 30.5989C18.6529 30.5865 18.6413 30.5739 18.6299 30.561C18.6186 30.5481 18.6075 30.5349 18.5968 30.5214C18.5861 30.5079 18.5757 30.4942 18.5657 30.4802C18.5557 30.4662 18.5461 30.452 18.5368 30.4375C18.5274 30.423 18.5185 30.4083 18.5099 30.3934C18.5013 30.3785 18.4931 30.3634 18.4853 30.348C18.4775 30.3327 18.4701 30.3172 18.463 30.3015C18.456 30.2858 18.4493 30.27 18.4431 30.2539C18.4368 30.2379 18.431 30.2217 18.4256 30.2054C18.3315 29.9226 18.3722 29.6147 18.5084 29.3525C18.683 29.0162 18.9537 28.844 19.3042 28.7341Z" fill="#FEFEFE"/>
<path d="M19.3829 28.9879C19.572 28.9686 19.7517 28.9769 19.9224 29.0681C20.1071 29.1669 20.233 29.3425 20.2873 29.5428C20.2945 29.5699 20.3003 29.5972 20.3049 29.6249C20.3094 29.6525 20.3126 29.6803 20.3145 29.7082C20.3163 29.7362 20.3168 29.7642 20.3159 29.7922C20.315 29.8202 20.3128 29.8481 20.3092 29.8758C20.3056 29.9036 20.3006 29.9311 20.2944 29.9584C20.2881 29.9857 20.2805 30.0127 20.2716 30.0392C20.2627 30.0658 20.2526 30.0919 20.2412 30.1174C20.2297 30.143 20.2171 30.168 20.2032 30.1923C20.066 30.4305 19.8529 30.5446 19.5959 30.6101C19.4041 30.6409 19.2115 30.6165 19.0428 30.5153C18.8642 30.4081 18.7422 30.2305 18.6922 30.0295C18.6855 30.0023 18.6803 29.9748 18.6763 29.9471C18.6724 29.9194 18.6699 29.8915 18.6687 29.8635C18.6675 29.8355 18.6678 29.8076 18.6694 29.7796C18.671 29.7516 18.674 29.7238 18.6784 29.6961C18.6828 29.6685 18.6885 29.6411 18.6956 29.614C18.7027 29.5869 18.7111 29.5603 18.7209 29.534C18.7307 29.5077 18.7417 29.482 18.754 29.4569C18.7663 29.4317 18.7798 29.4072 18.7946 29.3834C18.9342 29.1566 19.1329 29.0501 19.3829 28.9879Z" fill="#DD0A32"/>
<path d="M19.4464 29.2415C19.5441 29.2399 19.6483 29.2613 19.7371 29.3018C19.866 29.3606 19.9663 29.4668 20.01 29.6025C20.0548 29.7417 20.0343 29.8953 19.9675 30.024C19.88 30.1924 19.7482 30.2802 19.5722 30.3378C19.4793 30.3444 19.3858 30.3465 19.2965 30.3158C19.2798 30.3102 19.2635 30.3037 19.2475 30.2964C19.2315 30.289 19.2159 30.2808 19.2008 30.2718C19.1857 30.2628 19.1711 30.2531 19.157 30.2425C19.1429 30.232 19.1294 30.2207 19.1166 30.2087C19.1037 30.1967 19.0915 30.1841 19.0799 30.1708C19.0684 30.1575 19.0576 30.1437 19.0475 30.1292C19.0374 30.1148 19.0281 30.0999 19.0197 30.0844C19.0112 30.069 19.0036 30.0532 18.9968 30.037C18.9367 29.8917 18.9441 29.7201 19.0122 29.579C19.104 29.3885 19.2531 29.3053 19.4464 29.2415Z" fill="#FEFEFE"/>
<path d="M16.3062 4.55493C16.2917 4.6154 16.215 4.70436 16.18 4.75766C15.9551 5.09934 15.7453 5.43577 15.5742 5.80846L15.1269 5.95002C11.5762 7.07865 8.42997 9.98213 6.7376 13.2666C6.67891 13.3795 6.62164 13.4931 6.56577 13.6074C6.50988 13.7216 6.45542 13.8366 6.40238 13.9522C6.34934 14.0678 6.29775 14.184 6.24759 14.3009C6.19744 14.4178 6.14873 14.5353 6.10146 14.6534C6.0542 14.7715 6.00841 14.8902 5.96409 15.0094C5.91978 15.1286 5.87693 15.2484 5.83557 15.3687C5.79423 15.489 5.75437 15.6098 5.71598 15.731C5.67762 15.8523 5.64077 15.974 5.60542 16.0962C5.57004 16.2184 5.5362 16.341 5.50389 16.464C5.47155 16.5871 5.44074 16.7105 5.41144 16.8343C5.38217 16.9581 5.35445 17.0822 5.32825 17.2066C5.30202 17.3311 5.27735 17.4559 5.25423 17.581C5.23111 17.706 5.20953 17.8314 5.18952 17.957C5.1695 18.0826 5.15104 18.2085 5.13413 18.3346C5.11721 18.4606 5.10187 18.5869 5.08809 18.7133C5.07431 18.8398 5.06208 18.9664 5.05141 19.0932C5.04077 19.2199 5.0317 19.3468 5.02418 19.4738C5.01667 19.6007 5.01073 19.7278 5.00635 19.8549C5.00197 19.982 4.99916 20.1092 4.99792 20.2364C4.99668 20.3636 4.99702 20.4908 4.99895 20.6179C5.00087 20.7451 5.00436 20.8723 5.00942 20.9994C5.01448 21.1265 5.0211 21.2535 5.02929 21.3804C5.03749 21.5074 5.04724 21.6342 5.05857 21.7609C5.06993 21.8876 5.08284 22.0141 5.0973 22.1405C5.11176 22.2668 5.12778 22.393 5.14534 22.519C5.16294 22.645 5.18209 22.7707 5.20279 22.8962C5.22349 23.0217 5.24574 23.147 5.26954 23.2719C5.29331 23.3969 5.31864 23.5215 5.34552 23.6458C5.37239 23.7702 5.4008 23.8942 5.43076 24.0178C5.4607 24.1414 5.49217 24.2647 5.52516 24.3875C5.55815 24.5104 5.59264 24.6328 5.62864 24.7548C5.66467 24.8768 5.7022 24.9983 5.7412 25.1194C5.76848 25.2039 5.79655 25.2883 5.82541 25.3723C5.85424 25.4564 5.88387 25.5402 5.91428 25.6237C5.94467 25.7072 5.97584 25.7905 6.00781 25.8734C6.03974 25.9563 6.07243 26.039 6.10589 26.1213C6.13937 26.2036 6.17361 26.2856 6.20858 26.3674C6.24358 26.449 6.27934 26.5304 6.31583 26.6115C6.35232 26.6925 6.38956 26.7732 6.42755 26.8535C6.46554 26.9339 6.50427 27.0139 6.54375 27.0935C6.58322 27.1731 6.62343 27.2524 6.66436 27.3313C6.70532 27.4101 6.74701 27.4886 6.7894 27.5668C6.83179 27.6449 6.8749 27.7226 6.91872 27.7999C6.96257 27.8772 7.00712 27.9541 7.05237 28.0306C7.09761 28.1071 7.14358 28.1832 7.19025 28.2588C7.23693 28.3345 7.2843 28.4096 7.33237 28.4844C7.38041 28.5592 7.42915 28.6335 7.47859 28.7073C7.52803 28.7812 7.57815 28.8546 7.62895 28.9275C7.67975 29.0005 7.73123 29.0729 7.78336 29.1449C7.8355 29.2169 7.88828 29.2884 7.94172 29.3594C7.9952 29.4304 8.04932 29.5009 8.10409 29.5709C8.15887 29.6408 8.21428 29.7103 8.27033 29.7793C8.32638 29.8483 8.38306 29.9167 8.44038 29.9847C8.4977 30.0526 8.55564 30.1199 8.6142 30.1868C8.6728 30.2537 8.73198 30.32 8.79175 30.3857C8.85155 30.4515 8.91196 30.5167 8.97298 30.5813C9.03399 30.6459 9.09559 30.71 9.15779 30.7735C9.21998 30.837 9.28275 30.8999 9.34609 30.9622C9.40947 31.0245 9.47339 31.0863 9.53788 31.1474C9.60237 31.2086 9.66744 31.2691 9.73307 31.3291C9.79868 31.389 9.86484 31.4484 9.93156 31.5071C9.99829 31.5658 10.0656 31.6238 10.1334 31.6813C10.2011 31.7388 10.2695 31.7956 10.3383 31.8518C10.4072 31.908 10.4765 31.9636 10.5464 32.0185C11.4241 32.7042 12.3766 33.2757 13.3659 33.7838C13.4046 33.8987 13.4457 34.0107 13.4923 34.1227L12.728 33.8503C12.1134 33.6311 11.4868 33.4476 10.8711 33.2294C10.6264 33.1426 10.3559 33.068 10.1347 32.9294C9.68185 32.6457 9.08707 32.0604 8.6959 31.676C6.54868 29.5657 5.10727 27.0748 4.43215 24.137C4.40614 24.0252 4.3813 23.9131 4.35762 23.8008C4.33397 23.6884 4.31147 23.5758 4.29012 23.463C4.26877 23.3502 4.2486 23.2372 4.22961 23.124C4.21061 23.0108 4.19278 22.8973 4.17611 22.7837C4.15948 22.6701 4.14401 22.5564 4.12971 22.4425C4.11544 22.3285 4.10232 22.2145 4.09038 22.1003C4.07846 21.9861 4.06772 21.8718 4.05816 21.7574C4.0486 21.643 4.04024 21.5285 4.03308 21.4139C4.02588 21.2993 4.01987 21.1846 4.01506 21.07C4.01025 20.9552 4.00664 20.8405 4.00421 20.7257C4.00177 20.6109 4.00052 20.4961 4.00049 20.3813C4.00043 20.2664 4.00156 20.1516 4.00389 20.0368C4.00621 19.9221 4.00972 19.8073 4.01441 19.6926C4.01912 19.5779 4.02503 19.4632 4.0321 19.3486C4.03918 19.2341 4.04745 19.1196 4.05691 19.0051C4.06637 18.8907 4.07701 18.7764 4.0888 18.6622C4.10062 18.548 4.11364 18.4339 4.12785 18.3199C4.14204 18.206 4.1574 18.0922 4.17394 17.9786C4.19048 17.865 4.20821 17.7516 4.22711 17.6383C4.24601 17.5251 4.26607 17.4121 4.28729 17.2992C4.30852 17.1864 4.33093 17.0738 4.35451 16.9614C4.37807 16.8491 4.4028 16.7369 4.42872 16.6251C4.45459 16.5132 4.48165 16.4017 4.50985 16.2904C4.53806 16.1791 4.56742 16.0681 4.59793 15.9574C4.62844 15.8467 4.66009 15.7363 4.69289 15.6263C4.72566 15.5163 4.75958 15.4066 4.79465 15.2973C4.82972 15.1879 4.86592 15.079 4.90325 14.9704C4.94059 14.8618 4.97904 14.7537 5.0186 14.6459C5.05817 14.5381 5.09885 14.4308 5.14062 14.3238C5.18242 14.2169 5.22532 14.1104 5.26933 14.0043C5.31331 13.8983 5.3584 13.7927 5.40461 13.6876C5.45078 13.5825 5.49805 13.4778 5.5464 13.3737C5.87235 12.6765 6.26291 12.0017 6.67401 11.3514C6.91938 10.9632 7.21428 10.6072 7.49903 10.2475C8.04149 9.56234 8.6258 8.89651 9.2723 8.30676C11.1239 6.61766 13.8594 5.11289 16.3062 4.55493Z" fill="#DD0A32"/>
<path d="M37.6591 29.4021C37.7766 29.4779 38.3038 30.7804 38.4093 31.0153C37.8489 31.268 37.2528 31.4502 36.6769 31.6647L33.4894 32.8754L24.2949 36.4966L17.443 39.2493C15.2275 40.1112 13.0059 40.957 10.7782 41.7867L8.10955 42.8072C7.4704 43.058 6.8319 43.3295 6.17767 43.5376C6.12251 43.4176 6.05901 43.3022 5.99646 43.1859C6.44292 42.9684 6.92017 42.7956 7.38088 42.6101L9.45148 41.7666L16.973 38.714L36.6018 30.5622C36.8671 30.4579 37.1226 30.3699 37.3668 30.2198C36.739 30.4115 36.1153 30.6852 35.5027 30.9221C34.4004 31.3424 33.3021 31.7728 32.2077 32.2132L22.1711 36.3423L17.2446 38.3242C15.6047 38.9966 13.9597 39.6562 12.3095 40.3029L9.03275 41.5932C7.98297 42.0026 6.92352 42.4045 5.88758 42.8477L5.68848 42.4819C6.57094 42.1511 7.43912 41.7668 8.30996 41.4052L13.2361 39.3709C17.4321 37.7002 21.6183 36.0055 25.7949 34.2867L29.2341 32.8383L37.6591 29.4021Z" fill="#DD0A32"/>
<path d="M26.7967 27.0493C27.1024 27.0734 27.4821 27.2673 27.7669 27.3848C29.3995 28.0581 30.8982 28.8929 32.2988 29.9678C32.5775 30.1816 32.8807 30.3913 33.1254 30.6437C31.9368 31.1691 30.7159 31.6353 29.5141 32.1307L23.4048 34.6727C22.6875 34.9736 21.9612 35.2528 21.2424 35.5508C20.7587 35.7513 20.2721 35.9883 19.7752 36.1519C19.3529 35.9864 18.9066 35.8655 18.4746 35.7264C19.8355 32.5218 21.8908 29.8647 24.8857 28.039C25.5005 27.6642 26.158 27.3791 26.7967 27.0493Z" fill="#DD0A32"/>
<path d="M20.6125 2.73964C23.3661 2.57713 26.1627 4.35356 28.294 5.9255C28.6602 6.19563 29.4323 6.94064 29.7509 7.09812C30.076 7.25886 30.4843 7.32552 30.8346 7.41774C32.3084 7.8057 33.6916 8.10768 35.2287 7.98697C36.364 7.89782 37.9555 7.54059 38.72 6.63405C38.9653 6.3432 39.1345 5.96018 39.0937 5.57283C39.0594 5.24669 38.8775 5.05136 38.6395 4.85026C39.1063 5.0428 39.5393 5.40683 39.733 5.88165C39.9255 6.35377 39.8502 6.94907 39.6501 7.4068C39.2996 8.2084 38.5323 8.93917 37.7159 9.25371C35.8381 9.97735 32.3684 8.70948 30.605 7.91612C32.2819 9.44085 33.4403 10.8966 34.5316 12.8864C35.1132 13.947 35.5111 14.936 35.4335 16.1767C35.4125 16.5124 35.3666 16.857 35.2705 17.1799C35.0821 17.8135 34.7104 18.2821 34.1259 18.5947C32.9742 19.2106 31.6471 19.0784 30.4871 18.5622C30.1012 18.3905 29.7297 18.1417 29.3239 18.0241C28.6323 17.8236 28.05 18.0133 27.4375 18.3484C27.2647 18.7657 27.08 19.1778 26.8834 19.5844C26.6867 19.9911 26.4785 20.3918 26.2586 20.7864C26.0387 21.181 25.8076 21.5689 25.5652 21.9501C25.3229 22.3313 25.0697 22.7052 24.8057 23.0717C24.5344 23.4551 24.2293 23.8148 23.9522 24.1944C24.6591 23.8516 25.3675 23.5151 26.0636 23.1506C26.5157 24.1324 26.9129 25.1374 27.3662 26.1181C29.529 26.6934 31.5763 27.7853 33.3851 29.088C33.7915 29.3925 34.1601 29.7398 34.5237 30.0934C34.3646 30.164 34.2045 30.232 34.0433 30.2974C33.8596 30.1565 33.687 30.0001 33.5033 29.8584C33.0416 29.5024 32.5566 29.1608 32.07 28.8397C30.4682 27.7823 28.669 27.0443 26.8272 26.523C26.4809 25.673 26.1547 24.8055 25.7778 23.9693C25.3415 24.107 24.9306 24.3248 24.5199 24.5245C23.5434 24.9992 22.6028 25.5223 21.6576 26.0555C20.3599 26.7875 19.0569 27.4901 17.8078 28.3048C17.7911 28.7153 17.7249 29.1289 17.6759 29.5366C17.6047 30.1245 17.5421 30.7132 17.488 31.3029C17.018 31.3505 16.5417 31.4754 16.0792 31.5721C15.9228 31.8327 15.7841 32.1039 15.6264 32.3642C15.2142 33.0444 14.7816 33.7133 14.3847 34.4026C14.1739 34.3204 13.9498 34.2602 13.7339 34.1914C13.742 34.1834 13.7497 34.1751 13.758 34.1674C14.0088 33.9338 14.4059 33.1922 14.5945 32.8847C14.8199 32.5174 15.0554 32.1576 15.2776 31.7879C15.8388 30.8543 15.9085 31.0894 16.8648 30.8515C16.9259 30.5124 16.9374 30.1557 16.9671 29.8124C17.0183 29.1949 17.0762 28.578 17.1409 27.9618C16.7846 28.0341 16.4353 28.1474 16.08 28.2276C15.0333 28.4639 13.6657 28.6607 12.628 28.3434C12.2473 28.227 11.9108 28.0232 11.7253 27.6552C11.4509 27.1111 11.6254 26.4698 11.8021 25.9253C11.6603 25.7942 11.5114 25.6641 11.4193 25.4912C11.2905 25.2497 11.344 25.0399 11.4228 24.7961C11.4033 24.7678 11.384 24.7398 11.3669 24.7098C11.1687 24.3621 11.3996 23.9656 11.4919 23.6198C9.71334 22.4685 10.5607 22.1195 11.2496 20.6525C11.3639 20.4089 11.4819 20.1419 11.503 19.8707C11.5328 19.489 11.4342 19.116 11.3005 18.7622C11.2481 18.6233 11.1803 18.4765 11.1529 18.3302C11.0831 17.958 11.6338 17.0362 11.8235 16.6811C11.9667 16.4131 12.0597 16.1207 12.2 15.8498C12.4629 15.3416 12.7463 14.8451 13.0501 14.3603C13.3539 13.8755 13.6772 13.4039 14.0198 12.9457C14.2613 12.6234 14.5183 12.314 14.7907 12.0174C14.9937 11.7977 15.2438 11.5827 15.4123 11.3373C15.4164 11.3313 15.4203 11.3252 15.4244 11.3191C15.379 8.86288 15.622 6.16436 17.3613 4.26066C18.2283 3.31184 19.3326 2.79648 20.6125 2.73964Z" fill="#DD0A32"/>
<path d="M28.6104 16.0253L28.9822 16.0106C28.9247 16.0798 28.867 16.1494 28.806 16.2156C28.3892 16.6683 27.6146 16.9809 27.0068 17.0053C26.8495 16.9978 26.748 16.9471 26.6128 16.8734C27.1324 16.4928 27.9821 16.1585 28.6104 16.0253Z" fill="#FEFEFE"/>
<path d="M27.452 14.494C27.6506 14.4866 27.8492 14.4857 28.0478 14.4912C28.2464 14.4967 28.4447 14.5087 28.6425 14.527C28.8404 14.5454 29.0374 14.5702 29.2337 14.6013C29.4299 14.6325 29.625 14.67 29.8188 14.7138C29.3398 14.9336 28.8204 15.0806 28.3262 15.2634C27.7809 15.4651 27.2476 15.6995 26.704 15.9063C26.433 16.0145 26.1642 16.127 25.9067 16.2645C25.5007 15.8696 25.08 15.4911 24.6445 15.1289C25.3448 14.7102 26.6288 14.5336 27.452 14.494Z" fill="#FEFEFE"/>
<path d="M21.3663 23.0972C21.9581 23.6339 22.6444 24.0258 23.2875 24.493C22.5955 24.8928 21.8826 25.2555 21.1844 25.6447C20.7827 25.8522 20.3944 26.0852 19.9927 26.293C20.1198 25.4908 20.2435 24.7364 20.1462 23.9216C20.177 23.9174 20.2077 23.9129 20.2383 23.9082C20.7294 23.8314 21.0851 23.4852 21.3663 23.0972Z" fill="#FEFEFE"/>
<path d="M15.8916 11.5703C16.386 11.6951 16.8891 11.7823 17.383 11.9156C20.4696 12.7482 23.5281 14.8049 25.7867 17.0293C26.1038 17.3416 26.7917 18.0102 26.9999 18.3722C26.9293 18.545 26.8664 18.7317 26.7666 18.8898C25.7569 17.9886 24.8366 16.9688 23.7712 16.1325C23.95 16.4368 24.2237 16.7008 24.4485 16.974C24.8596 17.4735 25.2579 17.9809 25.6761 18.4752C25.3604 18.2613 25.0996 17.9526 24.802 17.7116C24.3346 17.333 23.8185 17.0092 23.3129 16.6845C23.5699 17.0699 23.9391 17.4106 24.2575 17.746C24.7484 18.2633 25.238 18.7874 25.669 19.3567C24.7344 18.6591 24.0169 17.8394 22.936 17.3047C23.1218 17.5672 23.362 17.8096 23.5794 18.0463C24.1096 18.6234 24.6905 19.1958 25.1543 19.8279C25.0547 19.8287 24.7179 19.4933 24.629 19.4194C24.0255 18.9174 23.22 18.2586 22.5399 17.886C22.8301 18.3846 23.3392 18.825 23.7297 19.2512C24.1582 19.7185 24.5709 20.1993 24.9678 20.6936C24.5742 20.4455 24.2517 20.0551 23.8924 19.7571C23.3316 19.2919 22.7164 18.8847 22.1091 18.4833C22.3386 18.8053 22.6265 19.0999 22.8935 19.391C23.1887 19.7123 23.4797 20.0374 23.7664 20.3663C24.0336 20.6703 24.3228 20.9784 24.4958 21.3484C24.6214 21.6173 24.665 21.8772 24.7007 22.1702C24.6883 22.1534 24.6758 22.1367 24.6628 22.1203C24.1218 21.4378 23.4777 20.8595 22.8074 20.3085C22.7172 20.2358 22.6263 20.1639 22.5348 20.0928C22.4433 20.0217 22.3512 19.9515 22.2585 19.8821C22.1657 19.8127 22.0723 19.7441 21.9783 19.6763C21.8843 19.6086 21.7897 19.5418 21.6945 19.4757C21.5993 19.4097 21.5035 19.3445 21.4071 19.2802C21.3108 19.2159 21.2139 19.1525 21.1163 19.0899C21.0188 19.0273 20.9208 18.9656 20.8221 18.9048C20.7235 18.844 20.6244 18.7841 20.5247 18.7251C20.425 18.6661 20.3247 18.608 20.224 18.5507C20.1233 18.4935 20.022 18.4372 19.9202 18.3818C19.8185 18.3264 19.7162 18.2719 19.6135 18.2184C19.5108 18.1648 19.4076 18.1122 19.3039 18.0605C19.2002 18.0088 19.0961 17.958 18.9915 17.9082C18.8869 17.8584 18.7818 17.8095 18.6764 17.7616C18.5709 17.7136 18.465 17.6666 18.3587 17.6206C18.2524 17.5746 18.1456 17.5295 18.0385 17.4854C17.9314 17.4412 17.8239 17.3981 17.716 17.3559C17.608 17.3137 17.4998 17.2725 17.3911 17.2323C17.2825 17.192 17.1735 17.1528 17.0641 17.1145C16.9548 17.0762 16.8451 17.039 16.7351 17.0026C16.6251 16.9663 16.5147 16.931 16.4041 16.8967C16.2934 16.8624 16.1824 16.8291 16.0712 16.7968C15.9599 16.7644 15.8484 16.7331 15.7366 16.7028C15.6247 16.6725 15.5127 16.6432 15.4003 16.6149C15.288 16.5866 15.1754 16.5593 15.0625 16.533C14.9497 16.5067 14.8366 16.4814 14.7233 16.4572C14.61 16.433 14.4965 16.4097 14.3828 16.3875C14.2691 16.3653 14.1552 16.3442 14.0411 16.324C13.927 16.3039 13.8128 16.2847 13.6983 16.2666C13.5839 16.2485 13.4693 16.2315 13.3546 16.2154C13.2398 16.1994 13.1249 16.1844 13.0099 16.1704C12.8949 16.1565 12.7798 16.1435 12.6646 16.1316C13.1698 14.8819 14.8475 12.4187 15.8916 11.5703Z" fill="#FEFEFE"/>
<path d="M12.4151 16.7167C12.6778 16.7082 12.9504 16.7486 13.2112 16.7787C14.3044 16.9051 15.3701 17.1591 16.4225 17.4788C16.7867 18.082 17.0855 18.7653 17.335 19.4237C17.7283 20.4616 18.0047 21.6297 17.5292 22.6828C18.5927 22.0859 19.5807 21.2048 19.6633 19.9058C19.675 19.7218 19.622 19.4105 19.7602 19.2618C19.8115 19.2065 19.8732 19.1796 19.9476 19.1766C20.3443 19.1606 20.8599 19.5638 21.1238 19.8313C21.371 20.082 21.6121 20.5266 21.6015 20.8855C21.5826 21.5344 21.1567 22.6958 20.6714 23.1375C20.5035 23.2903 20.2915 23.4271 20.0548 23.407C19.7569 23.3817 19.6827 23.1097 19.5178 22.9096C19.667 23.4783 19.8427 24.1316 19.7332 24.7198C19.6091 25.3863 19.0185 25.7824 18.4979 26.1415C17.3327 26.9206 14.3628 27.9665 12.9651 27.8188C12.6969 27.7904 12.4479 27.7084 12.2788 27.4858C12.0492 27.1833 12.0421 26.7488 12.1015 26.3886C12.164 26.0095 12.3546 25.7385 12.6593 25.5169C12.4412 25.4481 12.0045 25.4737 11.8415 25.3133C11.788 25.2606 11.7568 25.1405 11.7668 25.0674C11.7741 25.0141 11.8048 24.9705 11.8474 24.9391C12.1933 24.6849 13.2892 24.9955 13.6884 25.0711C13.2362 24.8367 12.3852 24.4394 11.8767 24.5504C11.8283 24.561 11.8047 24.5704 11.757 24.5505C11.6057 24.3514 11.9142 23.91 11.9308 23.657C11.9458 23.4277 11.7839 23.2752 11.7898 23.159C11.9424 23.0439 12.233 23.2281 12.4196 23.1545C12.4811 23.1302 12.5155 23.0973 12.54 23.0357C12.5604 22.9842 12.5584 22.8844 12.5315 22.836C12.4758 22.7355 12.3022 22.6946 12.2006 22.6784C12.0221 22.6499 11.6941 22.6295 11.5483 22.7456C11.4653 22.8116 11.469 22.9485 11.4583 23.0462C11.2756 22.9076 10.989 22.6641 10.9248 22.4364C10.8113 22.0331 11.52 21.1074 11.7123 20.7391C11.8385 20.4973 11.9362 20.2569 11.981 19.9867C12.0696 19.4527 11.9187 18.976 11.8089 18.4617C11.6935 17.9202 12.1263 17.1595 12.4151 16.7167Z" fill="#FEFEFE"/>
<path d="M12.7598 22.0862C12.8314 22.1263 13.5771 23.0339 13.711 23.1871C13.521 23.1434 13.3263 23.1 13.1645 22.9857C12.8733 22.7798 12.8156 22.4134 12.7598 22.0862Z" fill="#DD0A32"/>
<path d="M12.812 18.9934C13.0729 19.0952 13.3224 19.2059 13.5943 19.2783C14.0742 19.4062 14.5691 19.4686 15.0512 19.6001L15.0406 19.5938L15.0407 19.616C14.7874 19.5979 14.552 19.6213 14.301 19.6583C13.6851 19.7499 13.3415 19.9585 12.8399 20.3075C12.9395 20.0917 13.0755 19.8854 13.1441 19.6571C12.9995 19.4427 12.899 19.237 12.812 18.9934Z" fill="#DD0A32"/>
<path d="M20.2715 19.9515C20.3831 19.9631 20.4667 19.9847 20.5455 20.0696C20.6461 20.1779 20.6634 20.3266 20.6579 20.4682C20.6389 20.9641 20.3962 21.5378 20.0301 21.8736C19.9463 21.9239 19.8759 21.9377 19.7796 21.9294C19.7481 21.909 19.7196 21.8995 19.7038 21.8634C19.6703 21.7866 19.6959 21.6935 19.7146 21.6157C19.777 21.356 19.8998 21.1018 19.9847 20.8478C20.0841 20.5501 20.1508 20.2417 20.2715 19.9515Z" fill="#DD0A32"/>
<path d="M13.5188 17.1869C14.2361 17.1226 14.8517 17.4039 15.4239 17.8109C15.281 17.7685 15.1379 17.7247 14.9936 17.6873C14.5255 17.5657 14.2041 17.7201 13.8115 17.951C13.4941 18.1507 13.2149 18.4332 12.8916 18.6128C12.8031 18.662 12.6921 18.7043 12.5923 18.6668C12.5401 18.6472 12.5157 18.6051 12.4988 18.5539C12.4351 18.36 12.5901 18.115 12.6863 17.9567C12.9045 17.5978 13.0813 17.2941 13.5188 17.1869Z" fill="#DD0A32"/>
<path d="M21.0093 3.74008C22.5229 3.70168 24.0997 4.38299 25.4412 5.01912C26.1465 5.35349 26.8139 5.7516 27.4692 6.17456C29.7328 7.63542 31.5527 9.34911 33.0117 11.6263C33.56 12.482 34.0519 13.4125 34.3913 14.3727C34.6241 15.0316 34.7677 15.8291 34.4494 16.4848C34.2138 16.9702 33.7014 17.401 33.1886 17.5668C32.7687 17.7026 32.3036 17.6082 31.9209 17.407C31.5302 17.2018 31.069 16.775 30.9473 16.3391C30.9033 16.1818 30.9122 16.0242 31.0015 15.8841C31.0802 15.7606 31.2017 15.6882 31.344 15.6606C31.6296 15.6052 31.9504 15.6904 32.1843 15.859C32.387 16.0052 32.5845 16.2586 32.6148 16.5138C32.6232 16.5845 32.6154 16.6639 32.5637 16.7179C32.5177 16.766 32.4499 16.7823 32.3857 16.7847C32.0514 16.7972 31.7811 16.575 31.5491 16.365C31.7585 16.7461 31.9917 17.0014 32.4028 17.1681C32.428 17.174 32.453 17.1802 32.4785 17.1848C32.6328 17.2128 32.7946 17.1899 32.9218 17.0935C33.0562 16.9917 33.1247 16.8308 33.1428 16.6665C33.1833 16.2988 32.9816 15.9272 32.7595 15.6479C31.9119 14.5819 30.0781 13.952 28.7531 13.8018C28.3686 13.7581 27.9735 13.7412 27.589 13.7934C26.6493 13.9208 25.3339 14.5063 24.5899 15.1016C21.8052 12.9992 19.4957 11.8083 16.0376 11.1719C16.0458 9.2059 16.6209 6.55412 17.9827 5.07599C18.819 4.16816 19.7913 3.79207 21.0093 3.74008Z" fill="#FEFEFE"/>
<path d="M20.6147 5.17548L20.6303 5.19424C20.3509 5.47638 20.0894 5.77179 19.8695 6.10324C19.3349 6.90927 19.0126 7.84989 18.5166 8.68477C18.0662 9.44281 17.5258 10.1396 17.0799 10.9016L17.061 10.8897C17.1745 10.4854 17.3492 10.0875 17.4807 9.68678C18.1268 7.71786 18.7082 6.26003 20.6147 5.17548Z" fill="#DD0A32"/>
<path d="M23.8026 6.26718L23.8223 6.28156C22.884 7.14974 22.1296 8.17913 21.2148 9.06569C20.8265 9.44455 20.4206 9.80348 19.9971 10.1425C19.528 10.52 19.0452 10.8735 18.6154 11.2975L18.5991 11.2862C18.8319 10.99 19.0562 10.6919 19.2492 10.3674C19.4433 10.0411 19.6031 9.70232 19.8214 9.38931C20.7923 7.99712 22.3395 7.05748 23.8026 6.26718Z" fill="#DD0A32"/>
<path d="M26.5176 9.27953C27.1808 9.21338 27.961 9.28414 28.6353 9.30848C29.0632 9.32394 29.51 9.31035 29.9339 9.36248C27.681 9.63057 25.5169 10.4403 23.2994 10.8972C22.77 10.9937 22.2663 11.1039 21.7675 11.3126C21.4448 11.4475 21.1361 11.6184 20.812 11.7491C21.2062 11.4293 21.8132 11.1268 22.2559 10.8639C22.6322 10.6403 22.9778 10.3685 23.3558 10.1489C24.2979 9.60161 25.4378 9.35145 26.5176 9.27953Z" fill="#DD0A32"/>
<path d="M26.8888 11.7699C26.9358 11.7638 26.9853 11.7634 27.0326 11.7609C27.0947 11.7578 27.1568 11.7555 27.219 11.7539C27.2812 11.7523 27.3434 11.7515 27.4056 11.7514C27.4677 11.7514 27.5299 11.7521 27.5921 11.7535C27.6543 11.755 27.7164 11.7572 27.7785 11.7601C27.8407 11.7631 27.9027 11.7668 27.9648 11.7712C28.0268 11.7757 28.0888 11.7809 28.1507 11.7869C28.2126 11.7928 28.2744 11.7995 28.3362 11.807C28.3979 11.8145 28.4595 11.8227 28.5211 11.8316C28.5826 11.8406 28.644 11.8503 28.7054 11.8607C28.7666 11.8712 28.8278 11.8823 28.8889 11.8943C28.9499 11.9062 29.0107 11.9189 29.0715 11.9323C29.1322 11.9457 29.1928 11.9598 29.2532 11.9747C29.3135 11.9896 29.3737 12.0052 29.4337 12.0215C29.4937 12.0378 29.5536 12.0549 29.6131 12.0726C29.6727 12.0904 29.7321 12.1089 29.7912 12.1282C29.8504 12.1474 29.9093 12.1673 29.968 12.188C30.0266 12.2086 30.085 12.23 30.1432 12.2521C30.2013 12.2741 30.2592 12.2969 30.3168 12.3204C30.3744 12.3439 30.4317 12.368 30.4887 12.3929C30.5457 12.4177 30.6024 12.4433 30.6588 12.4695C30.7152 12.4957 30.7712 12.5227 30.8269 12.5503C30.8827 12.5778 30.9381 12.6061 30.9931 12.6351C31.0482 12.664 31.1029 12.6936 31.1572 12.7238C31.2115 12.7541 31.2655 12.785 31.3191 12.8166C31.3726 12.8482 31.4258 12.8804 31.4786 12.9133C31.5314 12.9461 31.5838 12.9796 31.6358 13.0138C31.6878 13.0479 31.7393 13.0827 31.7905 13.118C31.8416 13.1534 31.8923 13.1894 31.9426 13.226C31.9929 13.2627 32.0427 13.2999 32.092 13.3377C32.1414 13.3755 32.1903 13.4139 32.2388 13.4529C32.2872 13.4919 32.3351 13.5315 32.3826 13.5717C32.4301 13.6119 32.4771 13.6526 32.5236 13.6939C31.4505 13.1093 30.1586 12.8835 28.9525 12.7642C28.101 12.7398 27.2493 12.7227 26.3975 12.7128C25.5529 12.6994 24.6692 12.6498 23.8341 12.7935C23.4563 12.8585 23.1114 12.9867 22.7573 13.1283C23.6975 12.4307 25.7058 11.8727 26.8888 11.7699Z" fill="#DD0A32"/>
</svg>
