<svg width="49" height="49" viewBox="0 0 49 49" fill="none" xmlns="http://www.w3.org/2000/svg">
<mask id="mask0_2050_1665" style="mask-type:alpha" maskUnits="userSpaceOnUse" x="0" y="0" width="49" height="49">
<rect y="33" width="46.5882" height="22" transform="rotate(-45 0 33)" fill="#D9D9D9"/>
</mask>
<g mask="url(#mask0_2050_1665)">
<path fill-rule="evenodd" clip-rule="evenodd" d="M17.9997 15.1762C19.0577 16.6684 21.1894 18.1153 24.7024 17.5007C28.103 16.9057 33.0253 14.3413 40.1262 7.24037L41.3161 8.43024C34.2152 15.5312 31.6507 20.4535 31.0558 23.8541C30.4412 27.3671 31.888 29.4988 33.3802 30.5568L30.7432 33.3697L30.7407 33.3683L31.2323 32.8805C29.5916 31.7168 27.8546 29.2983 28.5962 25.0594C28.9151 23.2369 29.135 21.6695 30.5048 19.2415L-372.3 422.046L-373.49 420.856L29.3754 17.9912C26.9474 19.361 25.38 19.581 23.557 19.9003C19.3186 20.6414 16.9001 18.9044 15.7364 17.2637L17.9997 15.1762Z" fill="#C33130"/>
</g>
</svg>
